<svg width="9.503052" height="9.503052" viewBox="0 0 9.50305 9.50305" fill="none" xmlns="http://www.w3.org/2000/svg" xmlns:xlink="http://www.w3.org/1999/xlink">
	<desc>
			Created with Pixso.
	</desc>
	<defs/>
	<path id="Vector 1" d="M1.28 9.25L1.28 9.28C0.98 9.57 0.51 9.57 0.22 9.28C-0.08 8.98 -0.08 8.51 0.22 8.21L0.25 8.21L1.28 9.25ZM8 1.5L2.75 1.5C2.33 1.5 2 1.16 2 0.75C2 0.33 2.33 0 2.75 0L8.75 0C9.17 0 9.5 0.33 9.5 0.75L9.5 6.75C9.5 7.16 9.17 7.5 8.75 7.5C8.33 7.5 8 7.16 8 6.75L8 1.5Z" fill="#FF5900" fill-opacity="1.000000" fill-rule="nonzero"/>
	<path id="Vector 1" d="M6.94 1.5L2.75 1.5C2.33 1.5 2 1.16 2 0.75C2 0.33 2.33 0 2.75 0L8.75 0C9.17 0 9.5 0.33 9.5 0.75L9.5 6.75C9.5 7.16 9.17 7.5 8.75 7.5C8.33 7.5 8 7.16 8 6.75L8 2.56L1.28 9.28C0.98 9.57 0.51 9.57 0.22 9.28C-0.08 8.98 -0.08 8.51 0.22 8.21L6.94 1.5Z" fill="#FFFFFF" fill-opacity="1.000000" fill-rule="evenodd"/>
</svg>
